:SAMPLES-PER-SECOND 30
:FULLY-SPECIFIED
:DEGREES
327
root  62.9318 38.9284 16.5004 -179.016 -61.0507 174.687
RightUpLeg  -12.4748 -3.37038 -8.29692
RightLeg  35.2913 -3.09478 -2.5986
RightFoot  -10.0492 -0.12973 5.44449
RightToes  5.82063e-011 0 -3.6325e-017
Spine  7.03727 -0.0606001 -4.7485
Spine1  11.0304 -0.565427 -1.09721
HEad  -35.5355 0.690821 1.79647
LeftShoulder1  -0.283821 4.28346 -30.2268
LeftArm  -7.07803 20.2435 -38.2847
LeftForeArm  23.6047 -2.77179 -6.45303
LeftHand  -0.111876 9.84943 -1.35887
RightShoulder  -0.63712 -5.41908 26.5551
RightArm  8.20737 0.399285 47.7915
RightForeArm  15.159 37.2933 7.61087
RightHand  -0.295307 3.01422 -4.30134
LeftUpLeg  1.22335 6.68561 -4.24621
LeftLeg  10.7002 10.2671 0.189255
LeftFoot  -9.14501 -0.0321459 4.53959
LeftToes  -1.20963e-009 8.6283e-011 2.04439e-011
328
root  62.2901 38.9157 16.4701 -179.054 -63.1111 174.757
RightUpLeg  -14.8433 -3.26979 -6.67161
RightLeg  33.4435 -2.75003 -2.19775
RightFoot  -9.70111 -0.145904 5.57502
RightToes  5.82063e-011 0 -3.6325e-017
Spine  7.35413 -0.158901 -4.20813
Spine1  11.0142 -0.30523 -2.0392
HEad  -35.2904 -1.61922 3.47655
LeftShoulder1  -0.182235 4.01914 -29.258
LeftArm  -7.74101 21.4143 -38.8344
LeftForeArm  24.283 -3.26136 -6.13425
LeftHand  -0.191915 11.4148 -2.40772
RightShoulder  -0.765448 -5.74036 27.6057
RightArm  8.92653 0.317102 47.666
RightForeArm  16.798 40.0279 8.33669
RightHand  -0.299088 3.04114 -4.36993
LeftUpLeg  2.42094 6.6299 -4.43707
LeftLeg  10.1596 8.40062 -0.0424018
LeftFoot  -9.81798 -0.00576798 4.88315
LeftToes  -1.20963e-009 8.6283e-011 2.04439e-011
329
root  61.6167 38.9173 16.4285 -179.231 -65.4498 174.907
RightUpLeg  -16.3503 -3.23298 -5.1409
RightLeg  29.5523 -2.62948 -1.83309
RightFoot  -9.31331 -0.165447 5.76952
RightToes  5.82063e-011 0 -3.6325e-017
Spine  7.92716 -0.264895 -3.91951
Spine1  10.6962 -0.343312 -1.95247
HEad  -35.3004 -3.90976 4.51682
LeftShoulder1  -0.168892 3.97783 -29.3008
LeftArm  -8.07329 21.0602 -38.955
LeftForeArm  24.5725 -2.90323 -5.93873
LeftHand  -0.1841 11.3502 -2.30782
RightShoulder  -0.76001 -5.70979 27.7503
RightArm  9.70883 0.0290784 47.5489
RightForeArm  18.7251 41.4519 8.6639
RightHand  -0.226872 3.91255 -3.07524
LeftUpLeg  3.75766 6.48432 -4.55028
LeftLeg  9.64355 6.35683 -0.175817
LeftFoot  -10.3582 0.0143526 5.60023
LeftToes  -1.20963e-009 8.6283e-011 2.04439e-011
330
root  60.9024 38.8795 16.3589 -178.982 -67.7966 174.645
RightUpLeg  -17.5272 -3.19569 -3.9613
RightLeg  24.5799 -2.78581 -1.61194
RightFoot  -9.02102 -0.177545 5.73854
RightToes  5.82063e-011 0 -3.6325e-017
Spine  7.635 -0.637479 -4.10889
Spine1  11.4548 -0.876246 -1.16512
HEad  -34.9552 -4.77328 4.82364
LeftShoulder1  -0.365886 4.50344 -30.5056
LeftArm  -7.49534 19.0597 -38.5938
LeftForeArm  24.9216 -2.42166 -6.27966
LeftHand  -0.146046 11.8672 -1.44903
RightShoulder  -0.521172 -5.08821 26.1313
RightArm  10.48 0.58234 49.2986
RightForeArm  17.6219 39.9345 8.25458
RightHand  -0.326802 3.97113 -4.32595
LeftUpLeg  4.96329 6.34396 -4.72251
LeftLeg  9.51614 4.368 -0.264355
LeftFoot  -11.2101 0.06044 5.98785
LeftToes  -1.20963e-009 8.6283e-011 2.04439e-011
331
root  60.1163 38.8401 16.2824 -178.418 -70.3969 174.083
RightUpLeg  -17.9526 -3.94913 -3.08176
RightLeg  18.3007 -2.37668 -1.09016
RightFoot  -8.58497 -0.202228 5.96548
RightToes  5.82063e-011 0 -3.6325e-017
Spine  7.75829 -0.781788 -3.93971
Spine1  11.2199 -1.08511 -0.644076
HEad  -34.4951 -6.95957 5.5139
LeftShoulder1  -0.34377 4.42839 -30.9572
LeftArm  -7.37211 16.828 -38.8502
LeftForeArm  26.8297 -1.80686 -6.3421
LeftHand  -0.167866 10.1665 -2.55021
RightShoulder  -0.493993 -5.00739 25.9577
RightArm  12.0614 0.87421 49.19
RightForeArm  16.7779 37.7862 7.66033
RightHand  -0.32477 3.42214 -4.52603
LeftUpLeg  6.4128 6.14847 -4.88966
LeftLeg  9.04806 2.15479 -0.349421
LeftFoot  -11.9847 0.107103 6.22642
LeftToes  -1.20963e-009 8.6283e-011 2.04439e-011
332
root  59.2807 38.7407 16.1782 -176.848 -72.541 172.457
RightUpLeg  -18.1518 -4.64108 -2.55707
RightLeg  11.8315 -1.84974 -0.594419
RightFoot  -8.03446 -0.252266 6.84169
RightToes  5.82063e-011 0 -3.6325e-017
Spine  7.68205 -0.771046 -3.24618
Spine1  11.1144 -0.74263 -1.4552
HEad  -33.8996 -8.90868 6.6595
LeftShoulder1  -0.206065 4.07252 -30.1317
LeftArm  -7.06935 14.7887 -40.1351
LeftForeArm  28.0275 -2.23971 -6.71128
LeftHand  -0.129822 10.6742 -1.5727
RightShoulder  -0.626524 -5.37275 26.7994
RightArm  14.0304 1.46047 48.5074
RightForeArm  15.0358 34.3457 6.81206
RightHand  -0.27802 2.99405 -4.04909
LeftUpLeg  7.89182 5.81645 -5.41963
LeftLeg  8.76468 0.553247 -0.207564
LeftFoot  -12.8513 0.164947 6.6166
LeftToes  -1.20963e-009 8.6283e-011 2.04439e-011
333
root  58.3739 38.6275 16.0502 -175.067 -74.3959 170.484
RightUpLeg  -17.7984 -4.68821 -2.3487
RightLeg  5.51623 -1.75981 -0.0308921
RightFoot  -7.0494 -0.341447 7.78247
RightToes  5.82063e-011 0 -3.6325e-017
Spine  7.14049 -0.843012 -2.80468
Spine1  11.833 -0.717575 -1.51813
HEad  -33.2972 -10.7332 7.51035
LeftShoulder1  -0.27878 4.26816 -30.3463
LeftArm  -6.14703 12.28 -40.8581
LeftForeArm  27.2157 -3.44776 -7.42156
LeftHand  -0.0780272 11.5831 -0.290198
RightShoulder  -0.560697 -5.21005 26.0645
RightArm  15.1594 1.84271 49.4521
RightForeArm  14.0233 29.7604 5.69064
RightHand  -0.171126 1.99667 -2.87619
LeftUpLeg  9.81013 5.79557 -5.6533
LeftLeg  8.29546 -1.10583 -0.318544
LeftFoot  -13.7307 0.232516 7.18323
LeftToes  -1.20963e-009 8.6283e-011 2.04439e-011
334
root  57.3897 38.4837 15.9041 -172.134 -76.3038 167.159
RightUpLeg  -16.8057 -4.95847 -2.59785
RightLeg  -0.100885 -1.90277 0.532895
RightFoot  -5.75219 -0.483819 9.10514
RightToes  5.82063e-011 0 -3.6325e-017
Spine  7.42621 -0.593503 -2.68186
Spine1  11.1688 -0.542384 -1.1178
HEad  -32.911 -14.0534 8.47669
LeftShoulder1  -0.197077 4.04022 -30.5147
LeftArm  -5.68164 10.1136 -41.6714
LeftForeArm  27.3091 -4.53245 -7.75305
LeftHand  -0.140397 9.90481 -2.10082
RightShoulder  -0.652333 -5.45375 26.7252
RightArm  16.8479 1.52284 48.5449
RightForeArm  11.5754 25.1944 4.83395
RightHand  -0.184218 1.34832 -3.35201
LeftUpLeg  12.023 5.85675 -5.88564
LeftLeg  7.96727 -2.99048 -0.522845
LeftFoot  -14.7358 0.306828 7.35675
LeftToes  -1.20963e-009 8.6283e-011 2.04439e-011
335
root  56.3293 38.2626 15.7156 -168.46 -77.5791 163.11
RightUpLeg  -16.2184 -5.18357 -2.69977
RightLeg  -2.65701 -1.24589 0.698353
RightFoot  -4.74145 -0.585072 9.48003
RightToes  5.82063e-011 0 -3.6325e-017
Spine  6.4343 -0.75867 -2.10306
Spine1  12.337 -0.492719 -1.76071
HEad  -32.8339 -15.3095 8.93129
LeftShoulder1  -0.349382 4.44935 -30.8127
LeftArm  -5.22472 7.48631 -42.6745
LeftForeArm  26.0527 -6.22867 -8.04427
LeftHand  -0.12712 8.86257 -2.46489
RightShoulder  -0.489571 -4.99023 26.1048
RightArm  16.2904 1.522 49.7059
RightForeArm  10.8674 19.6604 4.39211
RightHand  -0.200782 0.457148 -4.08841
LeftUpLeg  14.0392 5.96961 -6.17435
LeftLeg  8.40738 -4.33373 -0.627581
LeftFoot  -16.2189 0.409183 7.3077
LeftToes  -1.20963e-009 8.6283e-011 2.04439e-011
336
root  55.2291 38.0099 15.5063 -165.005 -79.0486 159.429
RightUpLeg  -16.4956 -5.16547 -2.55845
RightLeg  -0.724913 -1.1609 0.637352
RightFoot  -4.10047 -0.517899 8.04451
RightToes  5.82063e-011 0 -3.6325e-017
Spine  6.18745 -0.76531 -1.42715
Spine1  12.2226 -0.421991 -1.94373
HEad  -32.369 -17.2453 9.23463
LeftShoulder1  -0.298831 4.32458 -30.2854
LeftArm  -4.60971 5.88441 -44.6433
LeftForeArm  25.1321 -8.28878 -8.0958
LeftHand  -0.106508 8.6217 -2.02131
RightShoulder  -0.555594 -5.16377 26.703
RightArm  13.2383 1.20339 48.9119
RightForeArm  12.8985 14.8201 5.11554
RightHand  -0.165426 1.7742 -2.823
LeftUpLeg  15.7613 6.22146 -5.85743
LeftLeg  9.36273 -6.10921 -0.880167
LeftFoot  -17.9686 0.53052 7.28077
LeftToes  -1.20963e-009 8.6283e-011 2.04439e-011
337
root  54.0918 37.9441 15.2924 -164.775 -80.9081 158.897
RightUpLeg  -16.8583 -5.30134 -1.86606
RightLeg  3.03151 -1.11321 0.799159
RightFoot  0.996376 -0.157795 1.6289
RightToes  5.82063e-011 0 -3.6325e-017
Spine  5.61292 -0.968958 -0.352801
Spine1  13.1235 -1.04087 -0.527123
HEad  -32.6994 -18.2518 9.16984
LeftShoulder1  -0.384901 4.54235 -30.8663
LeftArm  -2.27505 4.47824 -45.9495
LeftForeArm  23.1919 -11.1835 -7.85729
LeftHand  -0.0861837 7.97524 -1.78331
RightShoulder  -0.53729 -5.113 26.6056
RightArm  9.89227 0.742669 48.3462
RightForeArm  15.652 10.4883 5.43671
RightHand  -0.145715 1.32055 -2.67499
LeftUpLeg  18.2502 6.49493 -4.44274
LeftLeg  9.03893 -8.32476 -1.06249
LeftFoot  -18.2698 0.530886 6.94785
LeftToes  -1.20963e-009 8.6283e-011 2.04439e-011
